<svg id="visual" viewBox="0 0 900 600" width="900" height="600" xmlns="http://www.w3.org/2000/svg" xmlns:xlink="http://www.w3.org/1999/xlink" version="1.1"><path d="M0 467L21.5 469.5C43 472 86 477 128.8 474.5C171.7 472 214.3 462 257.2 449.5C300 437 343 422 385.8 428.3C428.7 434.7 471.3 462.3 514.2 470.7C557 479 600 468 642.8 467.2C685.7 466.3 728.3 475.7 771.2 468C814 460.3 857 435.7 878.5 423.3L900 411L900 601L878.5 601C857 601 814 601 771.2 601C728.3 601 685.7 601 642.8 601C600 601 557 601 514.2 601C471.3 601 428.7 601 385.8 601C343 601 300 601 257.2 601C214.3 601 171.7 601 128.8 601C86 601 43 601 21.5 601L0 601Z" fill="#0066FF" stroke-linecap="round" stroke-linejoin="miter"></path></svg>